<?xml version="1.0" encoding="utf-8"?>
<svg version="1.1" xmlns="http://www.w3.org/2000/svg" xmlns:xlink="http://www.w3.org/1999/xlink" x="0px" y="0px"
	 viewBox="0 0 70.5 26" style="enable-background:new 0 0 70.5 26;" xml:space="preserve">
<style type="text/css">
	.st0{fill:none;stroke:#FFFFFF;stroke-miterlimit:10;}
</style>
<g>
	<path class="st0" d="M2.3,23.6c-1.1-1.2-1.7-3.2-1.8-5.9l4.6-0.7c0,1.5,0.2,2.6,0.6,3.3c0.4,0.7,0.9,1,1.6,1c0.9,0,1.4-0.6,1.4-1.8
		c0-0.9-0.2-1.7-0.6-2.4c-0.4-0.7-1.1-1.4-2-2.2l-2.1-1.8c-1-0.9-1.8-1.8-2.4-2.8c-0.6-1-0.9-2.2-0.9-3.5c0-2,0.6-3.6,1.8-4.7
		c1.2-1.1,2.9-1.6,5-1.6c2.3,0,3.9,0.7,4.7,2c0.8,1.3,1.3,3,1.3,4.9L8.8,8c0-1.3-0.2-2.2-0.3-2.7C8.2,4.7,7.8,4.4,7.2,4.4
		C6.7,4.4,6.4,4.6,6.1,5C5.9,5.4,5.7,5.8,5.7,6.3c0,0.8,0.2,1.5,0.6,2.1c0.4,0.6,1,1.2,1.8,1.9l2,1.8c1.2,1,2.1,2.1,2.8,3.2
		c0.7,1.1,1,2.5,1,4.1c0,1.1-0.3,2.2-0.8,3.1c-0.5,0.9-1.3,1.7-2.2,2.2s-2.1,0.8-3.3,0.8C5.2,25.5,3.5,24.9,2.3,23.6z"/>
	<path class="st0" d="M16.6,0.8h5.4v9.8h3.8V0.8h5.4v24.3h-5.4V14.5h-3.8v10.6h-5.4V0.8z"/>
	<path class="st0" d="M37.5,24.6c-1.1-0.6-1.8-1.5-2.2-2.6c-0.4-1.2-0.6-2.6-0.6-4.4V0.8h5.3v17.6c0,1,0.1,1.8,0.4,2.3
		c0.2,0.6,0.8,0.9,1.5,0.9s1.3-0.3,1.5-0.9c0.2-0.6,0.4-1.4,0.4-2.3V0.8H49v16.8c0,1.8-0.2,3.2-0.7,4.4s-1.2,2-2.2,2.6
		s-2.5,0.9-4.3,0.9S38.5,25.2,37.5,24.6z"/>
	<path class="st0" d="M52.7,0.8h5.8L61.2,15l2.9-14.1h5.6L70,25.1h-3.8L65.8,9l-2.8,16.2h-3.4l-3-16.3l-0.4,16.3h-3.9L52.7,0.8z"/>
</g>
</svg>